<svg width="80" height="80" viewBox="0 0 80 80" fill="none" xmlns="http://www.w3.org/2000/svg">
<rect x="0.5" y="0.5" width="79" height="79" rx="39.5" fill="white"/>
<rect x="0.5" y="0.5" width="79" height="79" rx="39.5" fill="url(#paint0_linear_13883_63965)"/>
<rect x="0.5" y="0.5" width="79" height="79" rx="39.5" stroke="#E9F0F9"/>
<path fill-rule="evenodd" clip-rule="evenodd" d="M38 27.4165C35.4687 27.4165 33.4166 29.4685 33.4166 31.9998C33.4166 34.5311 35.4687 36.5832 38 36.5832C40.5313 36.5832 42.5833 34.5311 42.5833 31.9998C42.5833 29.4685 40.5313 27.4165 38 27.4165ZM31.9166 31.9998C31.9166 28.6401 34.6402 25.9165 38 25.9165C41.3597 25.9165 44.0833 28.6401 44.0833 31.9998C44.0833 35.3596 41.3597 38.0832 38 38.0832C34.6402 38.0832 31.9166 35.3596 31.9166 31.9998ZM35.0386 41.9165H35.0666H40.9333H40.9613C41.3061 41.9165 41.5098 41.9165 41.6866 41.9258C45.1366 42.1066 47.8932 44.8632 48.074 48.3132C48.0833 48.4899 48.0833 48.6936 48.0833 49.0384V49.0665V49.0919C48.0833 49.3153 48.0833 49.4573 48.0768 49.5818C47.9496 52.0096 46.0097 53.9494 43.5819 54.0767C43.4574 54.0832 43.3154 54.0832 43.092 54.0832H43.0666H32.9333H32.9079C32.6845 54.0832 32.5425 54.0832 32.418 54.0767C29.9902 53.9494 28.0504 52.0096 27.9231 49.5818C27.9166 49.4573 27.9166 49.3153 27.9166 49.0919V49.0919V49.0665V49.0385V49.0384C27.9166 48.6936 27.9166 48.4899 27.9259 48.3132C28.1067 44.8632 30.8633 42.1066 34.3134 41.9258C34.4901 41.9165 34.6938 41.9165 35.0386 41.9165ZM35.0666 43.4165C34.6857 43.4165 34.5242 43.4168 34.3919 43.4237C31.7085 43.5643 29.5645 45.7084 29.4238 48.3917C29.4169 48.5241 29.4166 48.6856 29.4166 49.0665C29.4166 49.3236 29.4169 49.4232 29.4211 49.5033C29.5081 51.1644 30.8354 52.4917 32.4965 52.5787C32.5766 52.5829 32.6762 52.5832 32.9333 52.5832H43.0666C43.3237 52.5832 43.4233 52.5829 43.5034 52.5787C45.1645 52.4917 46.4918 51.1644 46.5788 49.5033C46.583 49.4232 46.5833 49.3236 46.5833 49.0665C46.5833 48.6856 46.583 48.5241 46.5761 48.3917C46.4355 45.7084 44.2914 43.5643 41.6081 43.4237C41.4757 43.4168 41.3142 43.4165 40.9333 43.4165H35.0666ZM53.4166 33.3332C53.4166 32.919 53.0808 32.5832 52.6666 32.5832C52.2524 32.5832 51.9166 32.919 51.9166 33.3332V36.5832H48.6666C48.2524 36.5832 47.9166 36.919 47.9166 37.3332C47.9166 37.7474 48.2524 38.0832 48.6666 38.0832H51.9166V41.3332C51.9166 41.7474 52.2524 42.0832 52.6666 42.0832C53.0808 42.0832 53.4166 41.7474 53.4166 41.3332V38.0832H56.6666C57.0808 38.0832 57.4166 37.7474 57.4166 37.3332C57.4166 36.919 57.0808 36.5832 56.6666 36.5832H53.4166V33.3332Z" fill="#CBD5E1"/>
<defs>
<linearGradient id="paint0_linear_13883_63965" x1="40" y1="0" x2="40" y2="80" gradientUnits="userSpaceOnUse">
<stop stop-color="#F8FAFC"/>
<stop offset="1" stop-color="white"/>
</linearGradient>
</defs>
</svg>
